<svg width="18" height="19" viewBox="0 0 18 19" fill="none" xmlns="http://www.w3.org/2000/svg">
<path d="M15.6094 2.00781C15.1523 1.62109 13.3242 0.285156 9.31641 0.285156C9.31641 0.285156 4.57031 0.00390625 2.25 2.11328C0.949219 3.41406 0.492188 5.27734 0.457031 7.63281C0.421875 9.95312 0.351562 14.3477 4.57031 15.543V17.3359C4.57031 17.3359 4.53516 18.0742 5.02734 18.25C5.625 18.4258 5.94141 17.8633 6.50391 17.2656C6.82031 16.9141 7.24219 16.457 7.55859 16.0703C10.4414 16.3164 12.6562 15.7539 12.9375 15.6836C13.5 15.4727 16.8047 15.0508 17.332 10.6914C17.8945 6.15625 17.0859 3.30859 15.6094 2.00781ZM16.0664 10.3398C15.6445 13.9961 12.9375 14.2422 12.4453 14.418C12.2344 14.4531 10.3008 14.9453 7.83984 14.8047C7.83984 14.8047 6.01172 16.9844 5.44922 17.582C5.27344 17.7578 5.0625 17.7578 5.0625 17.3711C5.0625 17.125 5.0625 14.3477 5.0625 14.3477C1.51172 13.3633 1.72266 9.63672 1.75781 7.70312C1.79297 5.73438 2.14453 4.15234 3.23438 3.0625C5.20312 1.26953 9.24609 1.55078 9.24609 1.55078C12.6562 1.55078 14.2734 2.60547 14.6602 2.92188C15.9258 4.01172 16.5586 6.57812 16.0664 10.3398ZM11.1797 7.52734C11.1445 6.50781 10.6172 5.94531 9.63281 5.875C9.31641 5.875 9.28125 6.33203 9.59766 6.33203C10.3359 6.40234 10.6875 6.75391 10.7578 7.52734C10.7578 7.84375 11.2148 7.80859 11.1797 7.52734ZM11.918 7.91406C11.918 8.19531 12.375 8.23047 12.375 7.91406C12.4102 6.22656 11.3203 4.82031 9.28125 4.67969C8.96484 4.64453 8.92969 5.10156 9.24609 5.13672C11.0039 5.24219 11.9531 6.4375 11.918 7.91406ZM13.5703 8.37109C13.5352 5.3125 11.4609 3.51953 8.85938 3.48438C8.57812 3.48438 8.57812 3.94141 8.85938 3.94141C11.1797 3.97656 13.0781 5.52344 13.1133 8.37109C13.1133 8.6875 13.5703 8.6875 13.5703 8.37109ZM13.1484 11.8164C13.3242 11.5 13.2891 11.2188 13.043 11.0078C12.5859 10.5859 11.9531 10.1289 11.4258 9.84766C11.0391 9.63672 10.6523 9.77734 10.4766 9.98828L10.1602 10.4102C9.98438 10.6211 9.66797 10.5859 9.66797 10.5859C7.3125 9.98828 6.67969 7.63281 6.67969 7.63281C6.67969 7.63281 6.67969 7.31641 6.89062 7.14062L7.3125 6.78906C7.52344 6.61328 7.62891 6.22656 7.41797 5.83984C7.3125 5.62891 7.06641 5.24219 6.89062 5.03125C6.71484 4.75 6.25781 4.25781 6.25781 4.25781C6.08203 3.97656 5.76562 3.94141 5.44922 4.11719H5.41406C4.74609 4.46875 4.00781 5.20703 4.25391 5.91016C4.25391 5.91016 4.42969 6.54297 5.16797 7.87891C5.51953 8.54688 5.90625 9.07422 6.25781 9.53125C6.64453 10.0234 7.17188 10.5508 7.73438 11.0078C8.85938 11.8867 10.582 12.8008 11.3203 13.0117H11.3555C12.0586 13.2578 12.7969 12.5195 13.1484 11.8516V11.8164Z" fill="#61A77E"/>
</svg>
